<svg width="23" height="18" viewBox="0 0 23 18" fill="none" xmlns="http://www.w3.org/2000/svg">
<path d="M13.1429 0C7.69952 0 3.28571 4.03 3.28571 9H0L4.26048 12.89L4.33714 13.03L8.7619 9H5.47619C5.47619 5.13 8.90429 2 13.1429 2C17.3814 2 20.8095 5.13 20.8095 9C20.8095 12.87 17.3814 16 13.1429 16C11.029 16 9.11238 15.21 7.73238 13.94L6.17714 15.36C7.96238 16.99 10.4157 18 13.1429 18C18.5862 18 23 13.97 23 9C23 4.03 18.5862 0 13.1429 0ZM12.0476 5V10L16.7352 12.54L17.5238 11.33L13.6905 9.25V5H12.0476Z" fill="#377E78"/>
</svg>
