<svg width="20" height="20" viewBox="0 0 20 20" fill="none" xmlns="http://www.w3.org/2000/svg">
<g clip-path="url(#clip0_36_626)">
<path d="M13.3333 3.33335C13.3333 2.40835 14.075 1.66669 15 1.66669C15.925 1.66669 16.6667 2.40835 16.6667 3.33335C16.6667 4.25835 15.925 5.00002 15 5.00002C14.075 5.00002 13.3333 4.25835 13.3333 3.33335ZM16.6667 18.3334V13.3334H18.75L16.6333 6.97502C16.4 6.29169 15.7667 5.83335 15.05 5.83335H14.95C14.2333 5.83335 13.5917 6.29169 13.3667 6.97502L12.65 9.12502C13.55 9.62502 14.1667 10.5667 14.1667 11.6667V18.3334H16.6667ZM10.4167 9.58335C11.1083 9.58335 11.6667 9.02502 11.6667 8.33335C11.6667 7.64169 11.1083 7.08335 10.4167 7.08335C9.72499 7.08335 9.16666 7.64169 9.16666 8.33335C9.16666 9.02502 9.72499 9.58335 10.4167 9.58335ZM4.58332 5.00002C5.50832 5.00002 6.24999 4.25835 6.24999 3.33335C6.24999 2.40835 5.50832 1.66669 4.58332 1.66669C3.65832 1.66669 2.91666 2.40835 2.91666 3.33335C2.91666 4.25835 3.65832 5.00002 4.58332 5.00002ZM6.24999 18.3334V12.5H7.49999V7.50002C7.49999 6.58335 6.74999 5.83335 5.83332 5.83335H3.33332C2.41666 5.83335 1.66666 6.58335 1.66666 7.50002V12.5H2.91666V18.3334H6.24999ZM11.6667 18.3334V15H12.5V11.6667C12.5 10.9834 11.9333 10.4167 11.25 10.4167H9.58332C8.89999 10.4167 8.33332 10.9834 8.33332 11.6667V15H9.16666V18.3334H11.6667Z" fill="black"/>
</g>
<defs>
<clipPath id="clip0_36_626">
<rect width="20" height="20" fill="white"/>
</clipPath>
</defs>
</svg>
