<svg width="13" height="13" viewBox="0 0 13 13" fill="none" xmlns="http://www.w3.org/2000/svg">
<g clip-path="url(#clip0_47_893)">
<path d="M3.79169 9.75004C3.19585 9.75004 2.71377 10.2375 2.71377 10.8334C2.71377 11.4292 3.19585 11.9167 3.79169 11.9167C4.38752 11.9167 4.87502 11.4292 4.87502 10.8334C4.87502 10.2375 4.38752 9.75004 3.79169 9.75004ZM0.541687 1.08337V2.16671H1.62502L3.57502 6.27796L2.84377 7.60504C2.7571 7.75671 2.70835 7.93546 2.70835 8.12504C2.70835 8.72087 3.19585 9.20837 3.79169 9.20837H10.2917V8.12504H4.01919C3.94335 8.12504 3.88377 8.06546 3.88377 7.98962L3.90002 7.92462L4.38752 7.04171H8.42294C8.82919 7.04171 9.18669 6.81962 9.37085 6.48379L11.31 2.96837C11.3534 2.89254 11.375 2.80046 11.375 2.70837C11.375 2.41046 11.1313 2.16671 10.8334 2.16671H2.8221L2.31294 1.08337H0.541687ZM9.20835 9.75004C8.61252 9.75004 8.13044 10.2375 8.13044 10.8334C8.13044 11.4292 8.61252 11.9167 9.20835 11.9167C9.80419 11.9167 10.2917 11.4292 10.2917 10.8334C10.2917 10.2375 9.80419 9.75004 9.20835 9.75004Z" fill="black"/>
</g>
<defs>
<clipPath id="clip0_47_893">
<rect width="13" height="13" fill="white"/>
</clipPath>
</defs>
</svg>
