<svg width="18" height="18" viewBox="0 0 18 18" fill="none" xmlns="http://www.w3.org/2000/svg">
<g clip-path="url(#clip0_106_1670)">
<path d="M16.5 4.29002L13.05 1.39502L12.0825 2.54252L15.5325 5.43752L16.5 4.29002ZM5.90999 2.54252L4.94999 1.39502L1.49999 4.28252L2.46749 5.43002L5.90999 2.54252ZM9.37499 6.00002H8.24999V10.5L11.8125 12.6375L12.375 11.715L9.37499 9.93752V6.00002ZM8.99999 3.00002C5.27249 3.00002 2.24999 6.02252 2.24999 9.75002C2.24999 13.4775 5.26499 16.5 8.99999 16.5C12.7275 16.5 15.75 13.4775 15.75 9.75002C15.75 6.02252 12.7275 3.00002 8.99999 3.00002ZM8.99999 15C6.09749 15 3.74999 12.6525 3.74999 9.75002C3.74999 6.84752 6.09749 4.50002 8.99999 4.50002C11.9025 4.50002 14.25 6.84752 14.25 9.75002C14.25 12.6525 11.9025 15 8.99999 15Z" fill="black" fill-opacity="0.5"/>
</g>
<defs>
<clipPath id="clip0_106_1670">
<rect width="18" height="18" fill="white"/>
</clipPath>
</defs>
</svg>
