<svg width="23" height="17" viewBox="0 0 23 17" fill="none" xmlns="http://www.w3.org/2000/svg">
<path d="M19.1666 6.375H14.603L10.4062 0.267617C10.3503 0.186305 10.2695 0.118731 10.172 0.0717362C10.0745 0.0247413 9.96387 -5.87452e-06 9.85121 1.04601e-09L7.23574 1.04601e-09C6.81128 1.04601e-09 6.50501 0.337676 6.62161 0.677012L8.57941 6.375H4.47214L2.74713 4.4625C2.62654 4.32869 2.43687 4.25 2.23602 4.25H0.639185C0.223506 4.25 -0.0815646 4.57473 0.0194602 4.91008L1.27768 8.5L0.0194602 12.0899C-0.0815646 12.4253 0.223506 12.75 0.639185 12.75H2.23602C2.43727 12.75 2.62654 12.6713 2.74713 12.5375L4.47214 10.625H8.57941L6.62161 16.3227C6.50501 16.662 6.81128 17 7.23574 17H9.85121C10.0804 17 10.292 16.8977 10.4058 16.7324L14.603 10.625H19.1666C20.5782 10.625 23 9.67373 23 8.5C23 7.32627 20.5782 6.375 19.1666 6.375Z" fill="#C0B39A"/>
</svg>
