<svg width="17" height="12" viewBox="0 0 17 12" fill="none" xmlns="http://www.w3.org/2000/svg">
<path d="M16.8648 3.29143C12.1587 -1.09795 4.8394 -1.09634 0.135181 3.29143C-0.0417258 3.45643 -0.0451789 3.7358 0.125884 3.90696L1.03538 4.81687C1.19848 4.98027 1.46092 4.98375 1.63038 4.82705C5.50639 1.24634 11.493 1.24554 15.3698 4.82705C15.5393 4.98375 15.8018 4.98 15.9648 4.81687L16.8743 3.90696C17.0451 3.7358 17.0417 3.45643 16.8648 3.29143ZM8.49998 8.57143C7.561 8.57143 6.79998 9.33884 6.79998 10.2857C6.79998 11.2326 7.561 12 8.49998 12C9.43897 12 10.2 11.2326 10.2 10.2857C10.2 9.33884 9.43897 8.57143 8.49998 8.57143ZM13.8834 6.33241C10.8218 3.60214 6.1747 3.60509 3.11656 6.33241C2.93328 6.4958 2.92743 6.77946 3.10142 6.9525L4.01623 7.86295C4.1756 8.02152 4.4322 8.03223 4.60193 7.88438C6.83186 5.94054 10.1732 5.94482 12.3978 7.88438C12.5675 8.03223 12.8241 8.02179 12.9835 7.86295L13.8983 6.9525C14.0725 6.77946 14.0664 6.49554 13.8834 6.33241Z" fill="#5E5E5E"/>
</svg>
