<svg width="18" height="18" viewBox="0 0 18 18" fill="none" xmlns="http://www.w3.org/2000/svg">
<g clip-path="url(#clip0_94_1257)">
<path d="M18 3.06902L14.205 -0.115479L13.1408 1.14677L16.9358 4.33128L18 3.06902ZM6.351 1.14677L5.295 -0.115479L1.49999 3.06078L2.56424 4.32303L6.351 1.14677ZM10.1625 4.95003H8.925V9.90003L12.8438 12.2513L13.4625 11.2365L10.1625 9.28128V4.95003ZM9.75 1.65002C5.64975 1.65002 2.32499 4.97478 2.32499 9.07503C2.32499 13.1753 5.6415 16.5 9.75 16.5C13.8503 16.5 17.175 13.1753 17.175 9.07503C17.175 4.97478 13.8503 1.65002 9.75 1.65002ZM9.75 14.85C6.55725 14.85 3.975 12.2678 3.975 9.07503C3.975 5.88228 6.55725 3.30003 9.75 3.30003C12.9428 3.30003 15.525 5.88228 15.525 9.07503C15.525 12.2678 12.9428 14.85 9.75 14.85Z" fill="black" fill-opacity="0.5"/>
</g>
<defs>
<clipPath id="clip0_94_1257">
<rect width="18" height="18" fill="white"/>
</clipPath>
</defs>
</svg>
